<svg width="24" height="24" viewBox="0 0 24 24" fill="none" xmlns="http://www.w3.org/2000/svg">
  <defs>
    <linearGradient id="analyticsGradient" x1="0%" y1="0%" x2="100%" y2="100%">
      <stop offset="0%" style="stop-color:#667eea;stop-opacity:1" />
      <stop offset="50%" style="stop-color:#764ba2;stop-opacity:1" />
      <stop offset="100%" style="stop-color:#f093fb;stop-opacity:1" />
    </linearGradient>
    <linearGradient id="chartGradient" x1="0%" y1="100%" x2="0%" y2="0%">
      <stop offset="0%" style="stop-color:#4facfe;stop-opacity:0.3" />
      <stop offset="100%" style="stop-color:#00f2fe;stop-opacity:0.8" />
    </linearGradient>
  </defs>
  
  <!-- Chart background -->
  <rect x="3" y="3" width="18" height="18" rx="2" ry="2" fill="none" stroke="url(#analyticsGradient)" stroke-width="1.5"/>
  
  <!-- Bar chart bars -->
  <rect x="5" y="15" width="2" height="4" fill="url(#chartGradient)" rx="0.5"/>
  <rect x="8" y="12" width="2" height="7" fill="url(#chartGradient)" rx="0.5"/>
  <rect x="11" y="9" width="2" height="10" fill="url(#chartGradient)" rx="0.5"/>
  <rect x="14" y="7" width="2" height="12" fill="url(#chartGradient)" rx="0.5"/>
  <rect x="17" y="10" width="2" height="9" fill="url(#chartGradient)" rx="0.5"/>
  
  <!-- Trend line -->
  <path d="M5 16 L9 13 L12 10 L15 8 L18 11" 
        stroke="url(#analyticsGradient)" stroke-width="2" fill="none" stroke-linecap="round" stroke-linejoin="round"/>
  
  <!-- Data points -->
  <circle cx="6" cy="16" r="1.5" fill="url(#analyticsGradient)"/>
  <circle cx="9" cy="13" r="1.5" fill="url(#analyticsGradient)"/>
  <circle cx="12" cy="10" r="1.5" fill="url(#analyticsGradient)"/>
  <circle cx="15" cy="8" r="1.5" fill="url(#analyticsGradient)"/>
  <circle cx="18" cy="11" r="1.5" fill="url(#analyticsGradient)"/>
  
  <!-- Growth indicator -->
  <path d="M16 5 L19 5 L19 8" stroke="url(#analyticsGradient)" stroke-width="2" fill="none" stroke-linecap="round" stroke-linejoin="round"/>
  <path d="M16 8 L19 5" stroke="url(#analyticsGradient)" stroke-width="2" fill="none" stroke-linecap="round"/>
  
  <!-- Data flow particles -->
  <circle cx="7" cy="14" r="0.5" fill="url(#analyticsGradient)" opacity="0.6">
    <animate attributeName="cy" values="14;8;14" dur="3s" repeatCount="indefinite"/>
    <animate attributeName="opacity" values="0.6;1;0.6" dur="3s" repeatCount="indefinite"/>
  </circle>
  <circle cx="13" cy="12" r="0.5" fill="url(#analyticsGradient)" opacity="0.6">
    <animate attributeName="cy" values="12;6;12" dur="3s" begin="1s" repeatCount="indefinite"/>
    <animate attributeName="opacity" values="0.6;1;0.6" dur="3s" begin="1s" repeatCount="indefinite"/>
  </circle>
</svg>