<svg width="24" height="24" viewBox="0 0 24 24" fill="none" xmlns="http://www.w3.org/2000/svg">
  <defs>
    <linearGradient id="brainGradient" x1="0%" y1="0%" x2="100%" y2="100%">
      <stop offset="0%" style="stop-color:#667eea;stop-opacity:1" />
      <stop offset="50%" style="stop-color:#764ba2;stop-opacity:1" />
      <stop offset="100%" style="stop-color:#f093fb;stop-opacity:1" />
    </linearGradient>
    <linearGradient id="neuralGradient" x1="0%" y1="0%" x2="100%" y2="100%">
      <stop offset="0%" style="stop-color:#4facfe;stop-opacity:0.8" />
      <stop offset="100%" style="stop-color:#00f2fe;stop-opacity:0.8" />
    </linearGradient>
  </defs>
  
  <!-- Left brain hemisphere -->
  <path d="M3 8C3 5.8 4.8 4 7 4C8.2 4 9.2 4.5 10 5.2C10.8 4.5 11.8 4 13 4C15.2 4 17 5.8 17 8C17 9.1 16.6 10.1 16 10.8C16.6 11.5 17 12.5 17 13.6C17 15.8 15.2 17.6 13 17.6C11.8 17.6 10.8 17.1 10 16.4" 
        stroke="url(#brainGradient)" stroke-width="2" fill="none" stroke-linecap="round"/>
  
  <!-- Right brain hemisphere -->
  <path d="M14 5.2C14.8 4.5 15.8 4 17 4C19.2 4 21 5.8 21 8C21 9.1 20.6 10.1 20 10.8C20.6 11.5 21 12.5 21 13.6C21 15.8 19.2 17.6 17 17.6C15.8 17.6 14.8 17.1 14 16.4C13.2 17.1 12.2 17.6 11 17.6C8.8 17.6 7 15.8 7 13.6C7 12.5 7.4 11.5 8 10.8C7.4 10.1 7 9.1 7 8" 
        stroke="url(#brainGradient)" stroke-width="2" fill="none" stroke-linecap="round"/>
  
  <!-- Neural connections -->
  <circle cx="8" cy="8" r="1" fill="url(#neuralGradient)"/>
  <circle cx="12" cy="7" r="1" fill="url(#neuralGradient)"/>
  <circle cx="16" cy="8" r="1" fill="url(#neuralGradient)"/>
  <circle cx="9" cy="11" r="1" fill="url(#neuralGradient)"/>
  <circle cx="15" cy="11" r="1" fill="url(#neuralGradient)"/>
  <circle cx="10" cy="14" r="1" fill="url(#neuralGradient)"/>
  <circle cx="14" cy="14" r="1" fill="url(#neuralGradient)"/>
  
  <!-- Connection lines -->
  <line x1="8" y1="8" x2="12" y2="7" stroke="url(#neuralGradient)" stroke-width="1" opacity="0.6"/>
  <line x1="12" y1="7" x2="16" y2="8" stroke="url(#neuralGradient)" stroke-width="1" opacity="0.6"/>
  <line x1="9" y1="11" x2="15" y2="11" stroke="url(#neuralGradient)" stroke-width="1" opacity="0.6"/>
  <line x1="10" y1="14" x2="14" y2="14" stroke="url(#neuralGradient)" stroke-width="1" opacity="0.6"/>
  <line x1="8" y1="8" x2="9" y2="11" stroke="url(#neuralGradient)" stroke-width="1" opacity="0.4"/>
  <line x1="16" y1="8" x2="15" y2="11" stroke="url(#neuralGradient)" stroke-width="1" opacity="0.4"/>
  
  <!-- Central processing indicator -->
  <circle cx="12" cy="11" r="2" fill="none" stroke="url(#brainGradient)" stroke-width="1.5" opacity="0.8"/>
  <circle cx="12" cy="11" r="0.5" fill="url(#brainGradient)"/>
</svg>