<svg width="24" height="24" viewBox="0 0 24 24" fill="none" xmlns="http://www.w3.org/2000/svg">
  <defs>
    <linearGradient id="disconnectGradient" x1="0%" y1="0%" x2="100%" y2="100%">
      <stop offset="0%" style="stop-color:#f5576c;stop-opacity:1" />
      <stop offset="100%" style="stop-color:#f093fb;stop-opacity:1" />
    </linearGradient>
  </defs>
  
  <!-- Broken chain link -->
  <path d="M8 12 L10 12" stroke="url(#disconnectGradient)" stroke-width="2" stroke-linecap="round"/>
  <path d="M14 12 L16 12" stroke="url(#disconnectGradient)" stroke-width="2" stroke-linecap="round"/>
  
  <!-- Left chain part -->
  <path d="M6 8 C4.9 8 4 8.9 4 10 L4 14 C4 15.1 4.9 16 6 16 L8 16 C9.1 16 10 15.1 10 14 L10 10 C10 8.9 9.1 8 8 8 L6 8 Z" 
        stroke="url(#disconnectGradient)" stroke-width="2" fill="none"/>
  
  <!-- Right chain part -->
  <path d="M16 8 C14.9 8 14 8.9 14 10 L14 14 C14 15.1 14.9 16 16 16 L18 16 C19.1 16 20 15.1 20 14 L20 10 C20 8.9 19.1 8 18 8 L16 8 Z" 
        stroke="url(#disconnectGradient)" stroke-width="2" fill="none"/>
  
  <!-- Disconnect indicator -->
  <circle cx="12" cy="6" r="1.5" fill="url(#disconnectGradient)"/>
  <circle cx="12" cy="18" r="1.5" fill="url(#disconnectGradient)"/>
</svg>