<svg width="24" height="24" viewBox="0 0 24 24" fill="none" xmlns="http://www.w3.org/2000/svg">
  <defs>
    <linearGradient id="knowledgeGradient" x1="0%" y1="0%" x2="100%" y2="100%">
      <stop offset="0%" style="stop-color:#667eea;stop-opacity:1" />
      <stop offset="50%" style="stop-color:#764ba2;stop-opacity:1" />
      <stop offset="100%" style="stop-color:#f093fb;stop-opacity:1" />
    </linearGradient>
    <linearGradient id="pageGradient" x1="0%" y1="0%" x2="100%" y2="100%">
      <stop offset="0%" style="stop-color:#4facfe;stop-opacity:0.9" />
      <stop offset="100%" style="stop-color:#00f2fe;stop-opacity:0.9" />
    </linearGradient>
  </defs>
  
  <!-- Book spine -->
  <rect x="4" y="3" width="2" height="18" rx="1" fill="url(#knowledgeGradient)"/>
  
  <!-- Book cover -->
  <rect x="6" y="3" width="14" height="18" rx="1" fill="url(#pageGradient)" stroke="url(#knowledgeGradient)" stroke-width="1.5"/>
  
  <!-- Book pages -->
  <rect x="7" y="4" width="12" height="16" rx="0.5" fill="white" opacity="0.9"/>
  
  <!-- Knowledge content lines -->
  <line x1="9" y1="7" x2="17" y2="7" stroke="url(#knowledgeGradient)" stroke-width="1" opacity="0.6"/>
  <line x1="9" y1="9" x2="16" y2="9" stroke="url(#knowledgeGradient)" stroke-width="1" opacity="0.6"/>
  <line x1="9" y1="11" x2="17" y2="11" stroke="url(#knowledgeGradient)" stroke-width="1" opacity="0.6"/>
  <line x1="9" y1="13" x2="15" y2="13" stroke="url(#knowledgeGradient)" stroke-width="1" opacity="0.6"/>
  
  <!-- AI brain symbol -->
  <circle cx="13" cy="16" r="2" fill="none" stroke="url(#knowledgeGradient)" stroke-width="1.5"/>
  <circle cx="12" cy="15.5" r="0.5" fill="url(#knowledgeGradient)"/>
  <circle cx="14" cy="15.5" r="0.5" fill="url(#knowledgeGradient)"/>
  <circle cx="13" cy="17" r="0.5" fill="url(#knowledgeGradient)"/>
  <line x1="12" y1="15.5" x2="14" y2="15.5" stroke="url(#knowledgeGradient)" stroke-width="0.5" opacity="0.7"/>
  <line x1="12.5" y1="15.5" x2="13" y2="17" stroke="url(#knowledgeGradient)" stroke-width="0.5" opacity="0.7"/>
  <line x1="13.5" y1="15.5" x2="13" y2="17" stroke="url(#knowledgeGradient)" stroke-width="0.5" opacity="0.7"/>
  
  <!-- Knowledge transfer particles -->
  <circle cx="10" cy="6" r="0.5" fill="url(#knowledgeGradient)" opacity="0.7">
    <animate attributeName="cx" values="10;15;10" dur="4s" repeatCount="indefinite"/>
    <animate attributeName="opacity" values="0.7;1;0.7" dur="4s" repeatCount="indefinite"/>
  </circle>
  <circle cx="11" cy="8" r="0.5" fill="url(#knowledgeGradient)" opacity="0.7">
    <animate attributeName="cx" values="11;16;11" dur="4s" begin="1s" repeatCount="indefinite"/>
    <animate attributeName="opacity" values="0.7;1;0.7" dur="4s" begin="1s" repeatCount="indefinite"/>
  </circle>
  
  <!-- Bookmark -->
  <rect x="18" y="3" width="1.5" height="8" fill="url(#knowledgeGradient)"/>
  <path d="M18 11 L19.75 9.5 L21.5 11 L21.5 3 L18 3 Z" fill="url(#knowledgeGradient)"/>
</svg>