<svg width="24" height="24" viewBox="0 0 24 24" fill="none" xmlns="http://www.w3.org/2000/svg">
  <defs>
    <linearGradient id="networkGradient" x1="0%" y1="0%" x2="100%" y2="100%">
      <stop offset="0%" style="stop-color:#667eea;stop-opacity:1" />
      <stop offset="50%" style="stop-color:#764ba2;stop-opacity:1" />
      <stop offset="100%" style="stop-color:#f093fb;stop-opacity:1" />
    </linearGradient>
    <linearGradient id="nodeGradient" x1="0%" y1="0%" x2="100%" y2="100%">
      <stop offset="0%" style="stop-color:#4facfe;stop-opacity:1" />
      <stop offset="100%" style="stop-color:#00f2fe;stop-opacity:1" />
    </linearGradient>
  </defs>
  
  <!-- Input layer nodes -->
  <circle cx="4" cy="6" r="2" fill="url(#nodeGradient)" stroke="url(#networkGradient)" stroke-width="1"/>
  <circle cx="4" cy="12" r="2" fill="url(#nodeGradient)" stroke="url(#networkGradient)" stroke-width="1"/>
  <circle cx="4" cy="18" r="2" fill="url(#nodeGradient)" stroke="url(#networkGradient)" stroke-width="1"/>
  
  <!-- Hidden layer nodes -->
  <circle cx="12" cy="4" r="2" fill="url(#nodeGradient)" stroke="url(#networkGradient)" stroke-width="1"/>
  <circle cx="12" cy="8" r="2" fill="url(#nodeGradient)" stroke="url(#networkGradient)" stroke-width="1"/>
  <circle cx="12" cy="12" r="2" fill="url(#nodeGradient)" stroke="url(#networkGradient)" stroke-width="1"/>
  <circle cx="12" cy="16" r="2" fill="url(#nodeGradient)" stroke="url(#networkGradient)" stroke-width="1"/>
  <circle cx="12" cy="20" r="2" fill="url(#nodeGradient)" stroke="url(#networkGradient)" stroke-width="1"/>
  
  <!-- Output layer nodes -->
  <circle cx="20" cy="8" r="2" fill="url(#nodeGradient)" stroke="url(#networkGradient)" stroke-width="1"/>
  <circle cx="20" cy="16" r="2" fill="url(#nodeGradient)" stroke="url(#networkGradient)" stroke-width="1"/>
  
  <!-- Connections from input to hidden layer -->
  <line x1="6" y1="6" x2="10" y2="4" stroke="url(#networkGradient)" stroke-width="1.5" opacity="0.7"/>
  <line x1="6" y1="6" x2="10" y2="8" stroke="url(#networkGradient)" stroke-width="1.5" opacity="0.7"/>
  <line x1="6" y1="6" x2="10" y2="12" stroke="url(#networkGradient)" stroke-width="1" opacity="0.5"/>
  
  <line x1="6" y1="12" x2="10" y2="8" stroke="url(#networkGradient)" stroke-width="1.5" opacity="0.7"/>
  <line x1="6" y1="12" x2="10" y2="12" stroke="url(#networkGradient)" stroke-width="2" opacity="0.8"/>
  <line x1="6" y1="12" x2="10" y2="16" stroke="url(#networkGradient)" stroke-width="1.5" opacity="0.7"/>
  
  <line x1="6" y1="18" x2="10" y2="12" stroke="url(#networkGradient)" stroke-width="1" opacity="0.5"/>
  <line x1="6" y1="18" x2="10" y2="16" stroke="url(#networkGradient)" stroke-width="1.5" opacity="0.7"/>
  <line x1="6" y1="18" x2="10" y2="20" stroke="url(#networkGradient)" stroke-width="1.5" opacity="0.7"/>
  
  <!-- Connections from hidden to output layer -->
  <line x1="14" y1="4" x2="18" y2="8" stroke="url(#networkGradient)" stroke-width="1.5" opacity="0.7"/>
  <line x1="14" y1="8" x2="18" y2="8" stroke="url(#networkGradient)" stroke-width="2" opacity="0.8"/>
  <line x1="14" y1="12" x2="18" y2="8" stroke="url(#networkGradient)" stroke-width="1" opacity="0.5"/>
  <line x1="14" y1="12" x2="18" y2="16" stroke="url(#networkGradient)" stroke-width="1" opacity="0.5"/>
  <line x1="14" y1="16" x2="18" y2="16" stroke="url(#networkGradient)" stroke-width="2" opacity="0.8"/>
  <line x1="14" y1="20" x2="18" y2="16" stroke="url(#networkGradient)" stroke-width="1.5" opacity="0.7"/>
  
  <!-- Data flow indicators -->
  <circle cx="8" cy="9" r="0.5" fill="url(#nodeGradient)" opacity="0.8">
    <animate attributeName="opacity" values="0.3;1;0.3" dur="2s" repeatCount="indefinite"/>
  </circle>
  <circle cx="16" cy="12" r="0.5" fill="url(#nodeGradient)" opacity="0.8">
    <animate attributeName="opacity" values="0.3;1;0.3" dur="2s" begin="0.5s" repeatCount="indefinite"/>
  </circle>
</svg>