<svg width="24" height="24" viewBox="0 0 24 24" fill="none" xmlns="http://www.w3.org/2000/svg">
  <defs>
    <linearGradient id="refreshGradient" x1="0%" y1="0%" x2="100%" y2="100%">
      <stop offset="0%" style="stop-color:#667eea;stop-opacity:1" />
      <stop offset="50%" style="stop-color:#764ba2;stop-opacity:1" />
      <stop offset="100%" style="stop-color:#f093fb;stop-opacity:1" />
    </linearGradient>
    <linearGradient id="arrowGradient" x1="0%" y1="0%" x2="100%" y2="100%">
      <stop offset="0%" style="stop-color:#4facfe;stop-opacity:1" />
      <stop offset="100%" style="stop-color:#00f2fe;stop-opacity:1" />
    </linearGradient>
  </defs>
  
  <!-- Circular refresh path -->
  <path d="M4 12 C4 7.6 7.6 4 12 4 C16.4 4 20 7.6 20 12 C20 16.4 16.4 20 12 20 C9.5 20 7.3 18.9 5.9 17.1" 
        stroke="url(#refreshGradient)" stroke-width="2.5" fill="none" stroke-linecap="round"/>
  
  <!-- Top arrow -->
  <path d="M12 2 L15 5 L12 8 L9 5 Z" fill="url(#arrowGradient)" stroke="url(#refreshGradient)" stroke-width="1"/>
  
  <!-- Bottom arrow -->
  <path d="M12 22 L9 19 L12 16 L15 19 Z" fill="url(#arrowGradient)" stroke="url(#refreshGradient)" stroke-width="1"/>
  
  <!-- Data sync indicators -->
  <circle cx="8" cy="8" r="1" fill="url(#refreshGradient)" opacity="0.7">
    <animate attributeName="opacity" values="0.3;1;0.3" dur="2s" repeatCount="indefinite"/>
  </circle>
  <circle cx="16" cy="8" r="1" fill="url(#refreshGradient)" opacity="0.7">
    <animate attributeName="opacity" values="0.3;1;0.3" dur="2s" begin="0.5s" repeatCount="indefinite"/>
  </circle>
  <circle cx="16" cy="16" r="1" fill="url(#refreshGradient)" opacity="0.7">
    <animate attributeName="opacity" values="0.3;1;0.3" dur="2s" begin="1s" repeatCount="indefinite"/>
  </circle>
  <circle cx="8" cy="16" r="1" fill="url(#refreshGradient)" opacity="0.7">
    <animate attributeName="opacity" values="0.3;1;0.3" dur="2s" begin="1.5s" repeatCount="indefinite"/>
  </circle>
  
  <!-- Central sync symbol -->
  <circle cx="12" cy="12" r="3" fill="none" stroke="url(#refreshGradient)" stroke-width="1.5" opacity="0.6"/>
  <circle cx="12" cy="12" r="1" fill="url(#arrowGradient)"/>
  
  <!-- Rotation indicator -->
  <path d="M12 9 L12 12 L15 12" stroke="url(#refreshGradient)" stroke-width="1.5" stroke-linecap="round">
    <animateTransform attributeName="transform" type="rotate" values="0 12 12;360 12 12" dur="3s" repeatCount="indefinite"/>
  </path>
</svg>