<svg width="24" height="24" viewBox="0 0 24 24" fill="none" xmlns="http://www.w3.org/2000/svg">
  <defs>
    <linearGradient id="securityGradient" x1="0%" y1="0%" x2="100%" y2="100%">
      <stop offset="0%" style="stop-color:#667eea;stop-opacity:1" />
      <stop offset="50%" style="stop-color:#764ba2;stop-opacity:1" />
      <stop offset="100%" style="stop-color:#f093fb;stop-opacity:1" />
    </linearGradient>
    <linearGradient id="shieldGradient" x1="0%" y1="0%" x2="100%" y2="100%">
      <stop offset="0%" style="stop-color:#4facfe;stop-opacity:0.8" />
      <stop offset="100%" style="stop-color:#00f2fe;stop-opacity:0.8" />
    </linearGradient>
  </defs>
  
  <!-- Shield outline -->
  <path d="M12 2 L4 6 L4 12 C4 16.5 7.5 20.26 12 21 C16.5 20.26 20 16.5 20 12 L20 6 L12 2 Z" 
        fill="url(#shieldGradient)" stroke="url(#securityGradient)" stroke-width="2" stroke-linejoin="round"/>
  
  <!-- Security checkmark -->
  <path d="M9 12 L11 14 L15 10" 
        stroke="url(#securityGradient)" stroke-width="2.5" fill="none" stroke-linecap="round" stroke-linejoin="round"/>
  
  <!-- Lock symbol -->
  <rect x="10" y="8" width="4" height="3" rx="0.5" fill="none" stroke="url(#securityGradient)" stroke-width="1.5"/>
  <path d="M10.5 8 L10.5 6.5 C10.5 5.7 11.2 5 12 5 C12.8 5 13.5 5.7 13.5 6.5 L13.5 8" 
        stroke="url(#securityGradient)" stroke-width="1.5" fill="none" stroke-linecap="round"/>
  
  <!-- Encryption pattern -->
  <circle cx="7" cy="8" r="0.5" fill="url(#securityGradient)" opacity="0.6"/>
  <circle cx="17" cy="8" r="0.5" fill="url(#securityGradient)" opacity="0.6"/>
  <circle cx="7" cy="16" r="0.5" fill="url(#securityGradient)" opacity="0.6"/>
  <circle cx="17" cy="16" r="0.5" fill="url(#securityGradient)" opacity="0.6"/>
  
  <!-- Data protection lines -->
  <line x1="6" y1="10" x2="8" y2="10" stroke="url(#securityGradient)" stroke-width="1" opacity="0.5"/>
  <line x1="16" y1="10" x2="18" y2="10" stroke="url(#securityGradient)" stroke-width="1" opacity="0.5"/>
  <line x1="6" y1="14" x2="8" y2="14" stroke="url(#securityGradient)" stroke-width="1" opacity="0.5"/>
  <line x1="16" y1="14" x2="18" y2="14" stroke="url(#securityGradient)" stroke-width="1" opacity="0.5"/>
  
  <!-- Security pulse -->
  <circle cx="12" cy="12" r="8" fill="none" stroke="url(#securityGradient)" stroke-width="0.5" opacity="0.3">
    <animate attributeName="r" values="8;10;8" dur="3s" repeatCount="indefinite"/>
    <animate attributeName="opacity" values="0.3;0.1;0.3" dur="3s" repeatCount="indefinite"/>
  </circle>
</svg>